<?xml version="1.0" encoding="UTF-8" standalone="no"?>
<svg
   xmlns:dc="http://purl.org/dc/elements/1.1/"
   xmlns:cc="http://creativecommons.org/ns#"
   xmlns:rdf="http://www.w3.org/1999/02/22-rdf-syntax-ns#"
   xmlns:svg="http://www.w3.org/2000/svg"
   xmlns="http://www.w3.org/2000/svg"
   xmlns:sodipodi="http://sodipodi.sourceforge.net/DTD/sodipodi-0.dtd"
   xmlns:inkscape="http://www.inkscape.org/namespaces/inkscape"
   width="210mm"
   height="297mm"
   viewBox="0 0 210 297"
   version="1.1"
   id="svg8"
   inkscape:version="1.0.1 (3bc2e813f5, 2020-09-07)"
   sodipodi:docname="ahora si sowy caga.svg">
  <defs
     id="defs2" />
  <sodipodi:namedview
     id="base"
     pagecolor="#ffffff"
     bordercolor="#666666"
     borderopacity="1.0"
     inkscape:pageopacity="0.0"
     inkscape:pageshadow="2"
     inkscape:zoom="0.35"
     inkscape:cx="400"
     inkscape:cy="560"
     inkscape:document-units="mm"
     inkscape:current-layer="layer1"
     inkscape:document-rotation="0"
     showgrid="false"
     inkscape:window-width="1258"
     inkscape:window-height="728"
     inkscape:window-x="92"
     inkscape:window-y="0"
     inkscape:window-maximized="0" />
  <metadata
     id="metadata5">
    <rdf:RDF>
      <cc:Work
         rdf:about="">
        <dc:format>image/svg+xml</dc:format>
        <dc:type
           rdf:resource="http://purl.org/dc/dcmitype/StillImage" />
        <dc:title></dc:title>
      </cc:Work>
    </rdf:RDF>
  </metadata>
  <g
     inkscape:label="Capa 1"
     inkscape:groupmode="layer"
     id="layer1">
    <g
       id="g24"
       transform="matrix(0.65280496,-0.00205696,0.00230953,0.67229808,32.227411,37.886208)">
      <path
         style="fill:#f4fbfc;stroke-width:0.264583"
         d="m 75.049344,180.8655 c -0.323421,-0.22653 -0.588039,-0.58372 -0.588039,-0.79375 0,-0.49248 0.375743,-0.48866 0.78794,0.008 0.852271,1.02693 3.303556,0.59933 3.997497,-0.69731 0.268568,-0.50183 0.246795,-0.54313 -0.190595,-0.36159 -1.768396,0.73399 -1.863601,0.74593 -3.017922,0.37832 -2.917992,-0.92925 -3.175791,-5.04311 -0.388999,-6.2075 1.210927,-0.50596 1.677856,-0.48156 2.921842,0.15265 0.610446,0.31123 1.084021,0.4215 1.136324,0.26459 0.04932,-0.14797 0.198819,-0.26903 0.332211,-0.26903 0.133395,0 0.242536,1.25607 0.242536,2.79126 0,3.14229 -0.315953,4.09182 -1.578841,4.74489 -1.005175,0.51979 -2.904624,0.51432 -3.653954,-0.0105 z m 3.394819,-2.41667 c 1.552056,-0.91682 1.655178,-2.96033 0.210725,-4.17576 -1.056998,-0.8894 -2.310297,-0.88333 -3.379531,0.0164 -0.686343,0.57752 -0.814052,0.87127 -0.814052,1.87244 0,2.2263 2.071728,3.41589 3.982858,2.28695 z m 105.320877,2.2808 c -0.65589,-0.39987 -0.81671,-0.62427 -0.60156,-0.83942 0.21515,-0.21516 0.44422,-0.1574 0.85685,0.21603 0.37967,0.34359 0.9496,0.50968 1.74895,0.50968 0.97702,0 1.30056,-0.13346 1.83788,-0.75813 0.35866,-0.41697 0.61193,-0.79832 0.56281,-0.84744 -0.0491,-0.0491 -0.63342,0.10635 -1.29845,0.34549 -1.08276,0.38936 -1.31637,0.39399 -2.23515,0.0443 -2.77358,-1.05563 -2.95924,-4.88478 -0.29809,-6.14758 1.23229,-0.58476 1.98367,-0.55594 3.09004,0.11852 0.58584,0.35714 0.95138,0.45214 1.01423,0.2636 0.054,-0.16214 0.20741,-0.2948 0.3408,-0.2948 0.41481,0 0.29266,5.48561 -0.14081,6.32385 -0.84253,1.62926 -3.13255,2.12971 -4.8775,1.0659 z m 3.2203,-2.12063 c 1.67462,-0.76301 1.90185,-3.08339 0.42375,-4.32713 -1.06772,-0.89843 -2.31658,-0.89564 -3.38998,0.008 -0.67043,0.56412 -0.81405,0.88051 -0.81405,1.79321 0,2.17357 1.84637,3.4075 3.78028,2.52635 z m -164.311013,0.68861 c -0.470074,-0.20435 -1.094708,-0.76524 -1.388072,-1.24641 -1.892211,-3.10359 1.763659,-6.61892 4.725812,-4.54414 l 0.612738,0.42918 -2.055844,2.06797 c -1.762485,1.77288 -2.007055,2.12676 -1.713936,2.47995 0.431808,0.52029 1.867283,0.53357 2.541648,0.0235 0.282474,-0.21365 0.736529,-0.39225 1.009007,-0.39688 0.419833,-0.007 0.442958,0.0548 0.151564,0.40591 -0.489781,0.59015 -1.706742,1.17496 -2.419779,1.16282 -0.334647,-0.006 -0.99306,-0.17755 -1.463138,-0.38191 z m 1.259205,-3.45305 c 1.391796,-1.40521 1.63789,-1.77574 1.315273,-1.98032 -0.748236,-0.47448 -2.048197,-0.28323 -2.890115,0.4252 -0.673563,0.56677 -0.814051,0.87879 -0.814051,1.80799 0,1.06099 0.144684,1.47578 0.51476,1.47578 0.08909,0 0.932452,-0.77789 1.874133,-1.72865 z m 8.530379,3.45305 c -1.061741,-0.46157 -1.92146,-1.82503 -1.92146,-3.04731 0,-1.25028 0.870477,-2.59517 1.979692,-3.05863 1.221626,-0.51043 1.812586,-0.48073 3.055953,0.15359 0.596099,0.3041 1.047793,0.41143 1.047793,0.24897 0,-0.15707 0.119062,-0.212 0.264583,-0.12206 0.150304,0.0929 0.264583,1.41386 0.264583,3.05833 0,1.75347 -0.104317,2.8948 -0.264583,2.8948 -0.145521,0 -0.264583,-0.1786 -0.264583,-0.39688 0,-0.51113 -0.07977,-0.50176 -1.118085,0.1313 -1.010766,0.61627 -1.855467,0.65453 -3.043893,0.13789 z m 3.159604,-1.16815 c 0.710078,-0.63446 0.858057,-0.95853 0.858057,-1.87916 0,-0.92063 -0.147979,-1.24471 -0.858057,-1.87916 -1.174578,-1.04949 -2.462149,-1.04703 -3.515895,0.007 -0.625043,0.62504 -0.773398,1.00117 -0.773398,1.96085 0,1.00117 0.127709,1.29492 0.814051,1.87244 1.121998,0.94409 2.359742,0.915 3.475242,-0.0817 z m 7.184816,1.05293 c -1.22218,-0.74525 -1.684526,-1.5606 -1.684526,-2.97066 0,-1.5357 0.885828,-2.71965 2.366823,-3.16337 1.114874,-0.33402 2.616178,-0.002 3.205966,0.70832 0.510305,0.61488 0.04199,0.7902 -0.793107,0.2969 -1.577998,-0.93215 -3.372278,-0.34335 -4.00214,1.31331 -0.40881,1.07525 -0.290584,1.61067 0.572783,2.59399 0.662541,0.75459 1.010531,0.93525 1.801514,0.93525 0.539197,0 1.211471,-0.17481 1.493946,-0.38846 0.599643,-0.45355 1.175049,-0.52054 1.175049,-0.13682 0,0.44483 -1.664603,1.31705 -2.513542,1.31705 -0.436563,0 -1.166807,-0.22748 -1.622766,-0.50551 z m 50.447554,0.17035 c -1.889147,-0.66823 -2.681801,-3.11334 -1.589882,-4.9043 0.974649,-1.59861 3.521549,-2.06378 4.86052,-0.88774 0.372187,0.3269 0.531538,0.35527 0.617361,0.10991 0.06363,-0.1819 0.224827,-0.33073 0.358219,-0.33073 0.133395,0 0.242536,1.36922 0.242536,3.04271 0,1.85208 -0.103532,3.04271 -0.264584,3.04271 -0.145521,0 -0.264583,-0.19229 -0.264583,-0.42731 0,-0.3879 -0.05743,-0.38967 -0.622776,-0.0192 -0.902822,0.59155 -2.284082,0.74636 -3.336811,0.37399 z m 3.093484,-1.38967 c 0.827775,-0.82778 0.915392,-1.04423 0.776481,-1.91823 -0.346406,-2.17947 -2.744089,-3.13865 -4.387993,-1.7554 -0.701773,0.5905 -0.814052,0.86096 -0.814052,1.96086 0,1.0999 0.112279,1.37035 0.814052,1.96085 1.207823,1.01632 2.431142,0.93229 3.611512,-0.24808 z m 16.298051,1.34075 c -2.43333,-1.05845 -2.4858,-4.72751 -0.0861,-6.02156 1.05033,-0.56641 2.52212,-0.47358 3.5905,0.22645 l 0.64283,0.4212 v -2.1471 c 0,-1.25501 0.10993,-2.1471 0.26458,-2.1471 0.16686,0 0.26459,1.80799 0.26459,4.8948 0,2.79015 -0.10429,4.89479 -0.24254,4.89479 -0.13339,0 -0.29725,-0.14883 -0.36411,-0.33073 -0.0919,-0.25009 -0.32834,-0.21784 -0.96954,0.13229 -1.00893,0.55092 -1.95649,0.57444 -3.1002,0.077 z m 3.19046,-1.11059 c 0.88509,-0.88509 1.08662,-1.6738 0.71523,-2.79912 -0.91992,-2.78737 -5.05014,-2.08715 -5.05014,0.85619 0,2.3348 2.72271,3.55513 4.33491,1.94293 z m 18.75046,1.03508 c -1.26052,-0.62736 -2.03732,-2.34864 -1.67208,-3.70506 0.38967,-1.44713 1.88329,-2.71254 3.20173,-2.71254 0.77652,0 2.37248,0.78117 2.37248,1.16125 0,0.16896 -0.89562,1.19685 -1.99027,2.28419 -1.78611,1.77419 -1.94377,2.011 -1.53693,2.30849 0.68063,0.49769 2.04661,0.39939 2.81157,-0.20233 0.41571,-0.327 0.74312,-0.42951 0.84504,-0.26459 0.25378,0.41061 -0.10259,0.81421 -1.07925,1.22228 -1.12328,0.46934 -1.87174,0.44609 -2.95229,-0.0917 z m 1.22988,-3.34824 c 0.93836,-0.94677 1.59875,-1.82152 1.4981,-1.98437 -0.099,-0.16018 -0.63298,-0.29124 -1.18663,-0.29124 -1.65993,0 -2.96438,1.68678 -2.55765,3.3073 0.0913,0.3638 0.25648,0.66145 0.36705,0.66145 0.11058,0 0.95618,-0.76191 1.87913,-1.69314 z m 8.59907,3.36688 c -1.11453,-0.55599 -1.77987,-1.76799 -1.75818,-3.20277 0.0362,-2.39186 2.63275,-3.87907 4.80021,-2.74933 0.72278,0.37674 1.10374,0.44994 1.30326,0.25042 0.43671,-0.43671 0.60947,0.67177 0.52132,3.34513 -0.0526,1.59466 -0.18505,2.39542 -0.40853,2.46945 -0.1819,0.0602 -0.33073,-0.0661 -0.33073,-0.28086 0,-0.32434 -0.16616,-0.30569 -0.98199,0.11025 -1.16886,0.59591 -2.03463,0.6118 -3.14536,0.0577 z m 3.21258,-0.95486 c 0.51245,-0.44079 0.73988,-0.93794 0.84149,-1.83945 0.12564,-1.11468 0.0605,-1.31421 -0.66713,-2.04179 -2.07959,-2.07959 -5.58723,0.37767 -4.25571,2.98132 0.79591,1.55633 2.80358,1.99901 4.08135,0.89992 z M 14.930055,174.92738 c 0,-4.09741 -0.04123,-4.50024 -0.46302,-4.52399 -0.254662,-0.0143 -0.750171,-0.0441 -1.10113,-0.0661 -0.350959,-0.022 -0.688303,-0.18891 -0.749652,-0.37081 -0.08439,-0.25021 0.54334,-0.33073 2.578386,-0.33073 2.033561,0 2.663393,0.0807 2.581171,0.33073 -0.05982,0.1819 -0.60552,0.36734 -1.212672,0.41209 l -1.103916,0.0814 v 4.4827 c 0,2.81208 -0.09861,4.48271 -0.264583,4.48271 -0.166013,0 -0.264584,-1.6757 -0.264584,-4.49792 z m 36.043511,-0.33073 c 0.04472,-2.99463 0.172608,-4.82864 0.336698,-4.82864 0.145521,0 0.29972,0.80065 0.342664,1.77924 l 0.07808,1.77923 1.129898,-0.15486 c 0.955225,-0.13093 1.249923,-0.0517 1.906294,0.51264 0.742947,0.63876 0.780343,0.7768 0.868079,3.20428 0.07897,2.18496 0.0331,2.53676 -0.330729,2.53676 -0.354994,0 -0.422415,-0.37353 -0.422415,-2.34025 0,-1.90092 -0.08692,-2.41489 -0.463021,-2.7379 -0.781791,-0.67144 -1.427493,-0.77837 -2.087801,-0.34571 -0.583171,0.3821 -0.624178,0.57371 -0.624178,2.91641 0,2.06897 -0.07045,2.50745 -0.402844,2.50745 -0.348655,0 -0.393142,-0.64954 -0.330729,-4.82865 z m 8.992901,1.8771 c 0.09732,-3.89267 0.604213,-3.93215 0.604213,-0.0471 0,2.06203 -0.09148,2.85271 -0.339629,2.93543 -0.265997,0.0887 -0.323358,-0.53754 -0.264584,-2.88837 z m 4.969838,-0.0345 c 0,-2.65366 0.05154,-2.99004 0.463021,-3.02219 0.254662,-0.0199 0.947526,-0.11774 1.539698,-0.21742 0.918366,-0.15459 1.190694,-0.0832 1.852083,0.48543 0.741762,0.63774 0.779386,0.77674 0.867093,3.20343 0.07897,2.18496 0.0331,2.53676 -0.330729,2.53676 -0.355288,0 -0.422416,-0.37537 -0.422416,-2.36205 0,-2.24163 -0.03584,-2.39024 -0.703032,-2.91505 -0.751475,-0.59111 -1.450509,-0.53268 -2.27353,0.19002 -0.375428,0.32968 -0.463021,0.84931 -0.463021,2.74683 0,1.38378 -0.108138,2.34025 -0.264583,2.34025 -0.160759,0 -0.264584,-1.17173 -0.264584,-2.98601 z m 37.041665,-0.0403 c 0,-2.70625 0.049,-3.02613 0.46302,-3.02499 0.25466,7.9e-4 0.96329,-0.0811 1.57473,-0.18186 1.00503,-0.16556 1.1891,-0.10574 1.91823,0.62339 0.78158,0.78158 0.80652,0.88148 0.80652,3.23017 0,1.82096 -0.0822,2.39641 -0.33073,2.31411 -0.22224,-0.0736 -0.35575,-0.85826 -0.40701,-2.39207 -0.0703,-2.10303 -0.13077,-2.32538 -0.76918,-2.82755 -0.78854,-0.62028 -1.54889,-0.51604 -2.26339,0.31029 -0.36163,0.41822 -0.46302,1.02157 -0.46302,2.75513 0,1.30338 -0.10922,2.21965 -0.26458,2.21965 -0.16097,0 -0.26459,-1.18515 -0.26459,-3.02627 z m 26.32159,2.43095 c -0.0808,-0.32742 -0.11278,-2.49052 -0.0712,-4.80688 0.0553,-3.07875 0.16459,-4.24116 0.40636,-4.32153 0.25666,-0.0853 0.33073,0.99116 0.33073,4.80689 0,3.03784 -0.0992,4.91684 -0.25954,4.91684 -0.14275,0 -0.32561,-0.26789 -0.40637,-0.59532 z m 25.18397,0.41893 c -0.28633,-0.28633 -0.20356,-5.59642 0.0901,-5.77789 0.14655,-0.0906 0.33384,0.0109 0.41621,0.22557 0.12997,0.33871 0.24975,0.33285 0.90709,-0.0444 1.1482,-0.65898 1.24033,-0.18595 0.16188,0.83116 -0.9382,0.88483 -0.95788,0.94489 -0.95788,2.92268 0,1.85645 -0.15151,2.30874 -0.61736,1.84289 z m 6.17361,-2.84988 c 0,-2.69924 0.05,-3.02811 0.46302,-3.04338 0.25466,-0.009 0.94997,-0.087 1.54513,-0.17248 0.90428,-0.12984 1.20866,-0.0466 1.85209,0.50662 0.73524,0.63213 0.7741,0.77641 0.86165,3.19875 0.0563,1.55868 -0.009,2.53676 -0.17013,2.53676 -0.43018,0 -0.58301,-0.72889 -0.58301,-2.78056 0,-1.78862 -0.056,-1.98762 -0.70303,-2.49654 -0.79873,-0.62828 -1.55593,-0.5276 -2.27353,0.30232 -0.36163,0.41822 -0.46302,1.02157 -0.46302,2.75513 0,1.30338 -0.10922,2.21965 -0.26459,2.21965 -0.16097,0 -0.26458,-1.18515 -0.26458,-3.02627 z m 8.99583,0.15351 c 0,-2.73309 0.32138,-4.00252 0.66537,-2.62817 0.27985,1.11814 0.0213,5.31758 -0.33464,5.43548 -0.25121,0.0832 -0.33073,-0.59179 -0.33073,-2.80731 z m 5.02709,-0.15351 c 0,-2.70625 0.049,-3.02613 0.46302,-3.02499 0.25466,7.9e-4 0.94752,-0.079 1.53969,-0.17716 0.91643,-0.15188 1.19209,-0.0792 1.85209,0.48823 0.74176,0.63774 0.77938,0.77674 0.86709,3.20343 0.079,2.18496 0.0331,2.53676 -0.33073,2.53676 -0.35529,0 -0.42241,-0.37537 -0.42241,-2.36205 0,-2.24163 -0.0359,-2.39024 -0.70304,-2.91505 -0.79873,-0.62828 -1.55592,-0.5276 -2.27353,0.30232 -0.36162,0.41822 -0.46302,1.02157 -0.46302,2.75513 0,1.30338 -0.10922,2.21965 -0.26458,2.21965 -0.16097,0 -0.26458,-1.18515 -0.26458,-3.02627 z M 59.975368,172.35609 c -0.533757,-0.19147 -0.379077,-0.86829 0.198437,-0.86829 0.291042,0 0.529167,0.17156 0.529167,0.38126 0,0.46017 -0.279998,0.64759 -0.727604,0.48703 z m 108.538152,-0.0861 c -0.24796,-0.4012 0.42411,-1.13251 0.74545,-0.81116 0.29674,0.29673 0.0659,1.08733 -0.3175,1.08733 -0.1415,0 -0.33408,-0.12428 -0.42795,-0.27617 z m -57.38984,-15.21237 c -3.78037,-0.95417 -7.39487,-3.4423 -9.06836,-6.24244 -1.68413,-2.81794 -1.66485,-2.53735 -1.66485,-24.22982 v -19.65587 h 4.10104 4.10105 v 5.42396 5.42396 h 6.48229 6.48229 v 3.43958 3.43959 h -6.32169 c -5.52048,0 -6.34205,0.053 -6.4823,0.41851 -0.29625,0.77202 -0.17658,19.0601 0.13421,20.50925 0.33912,1.58123 1.82166,3.39767 3.45194,4.22938 2.47791,1.26413 6.9018,1.11844 9.43407,-0.31069 0.78362,-0.44224 1.46181,-0.7665 1.50711,-0.72058 0.61473,0.62328 3.30374,4.33281 3.30374,4.55757 0,0.70752 -2.38281,2.22161 -5.03545,3.19963 -1.69867,0.6263 -2.45876,0.74159 -5.41559,0.82138 -2.44952,0.0661 -3.89147,-0.0212 -5.0095,-0.30341 z m 30.95625,0 c -3.82792,-0.96617 -7.36663,-3.40318 -9.06836,-6.24515 -1.68396,-2.81228 -1.66485,-2.53423 -1.66485,-24.22711 v -19.65587 h 4.10104 4.10105 v 5.42396 5.42396 h 6.48229 6.48229 v 3.43488 3.43488 l -6.41615,0.0709 -6.41614,0.0708 -0.0694,10.0423 c -0.0599,8.66626 -0.0108,10.21869 0.35818,11.32957 1.397,4.20597 7.7513,5.90152 12.64949,3.37532 0.86074,-0.44391 1.58696,-0.77629 1.61383,-0.73861 0.0269,0.0377 0.78651,1.01313 1.68808,2.16766 0.90158,1.15455 1.60496,2.27519 1.56306,2.49032 -0.12202,0.62651 -2.8164,2.3 -4.97097,3.08749 -1.7002,0.62142 -2.47695,0.73858 -5.42396,0.81811 -2.44952,0.0661 -3.89147,-0.0212 -5.0095,-0.30341 z m 32.70125,-0.13042 c -5.75886,-1.50848 -10.14705,-5.79633 -12.04075,-11.76541 -0.82923,-2.6138 -0.96264,-4.83678 -0.96463,-16.07344 l -0.002,-11.31094 h 4.22564 4.22564 l 0.0738,12.11075 0.0738,12.11075 0.86458,1.75572 c 1.15016,2.33563 3.36242,4.39693 5.65071,5.2651 1.33707,0.50729 2.18051,0.63873 4.06805,0.634 2.11707,-0.005 2.57954,-0.0992 4.1686,-0.84666 2.42921,-1.14258 3.97819,-2.66289 5.17066,-5.07498 l 0.97949,-1.98124 0.0763,-11.98672 0.0763,-11.98672 h 4.22314 4.22314 v 19.44688 19.44687 h -3.83646 -3.83646 l -0.002,-0.8599 c -0.001,-0.47294 -0.0764,-1.47636 -0.16688,-2.22982 l -0.16458,-1.36992 -1.61906,1.34788 c -1.81641,1.51217 -4.53997,2.89376 -6.90017,3.50028 -2.19119,0.56308 -6.14471,0.50194 -8.56672,-0.13248 z M 7.521722,137.22426 v -19.44688 h 3.673308 c 4.243539,0 3.989592,-0.18916 3.995997,2.97656 0.0021,0.98227 0.06673,1.78594 0.14387,1.78594 0.07714,0 0.902102,-0.64629 1.833242,-1.4362 5.416217,-4.59472 13.638279,-5.40623 19.387831,-1.91356 1.695027,1.02967 4.000481,3.24106 4.870625,4.6719 l 0.552524,0.90855 0.811829,-1.0492 c 3.589766,-4.63936 8.985779,-7.0516 14.862587,-6.6442 1.313387,0.0911 3.002497,0.33182 3.753578,0.53503 5.613143,1.51874 9.651336,5.7612 11.273642,11.84392 0.570436,2.13881 0.589925,2.62271 0.589925,14.6473 v 12.43542 h -4.101041 -4.101042 l -0.132292,-12.03854 -0.132291,-12.03854 -0.843272,-1.78013 c -2.575341,-5.43645 -8.66344,-7.51225 -13.973395,-4.76435 -1.236176,0.63972 -2.954655,2.3683 -3.941731,3.9649 -1.395121,2.25663 -1.482227,3.16561 -1.482227,15.46746 v 11.32149 h -4.081794 -4.08179 l -0.09538,-11.8401 c -0.09358,-11.61761 -0.106743,-11.86785 -0.700296,-13.3167 -1.693156,-4.13295 -5.557637,-6.85778 -9.725994,-6.85778 -1.590355,0 -4.080729,0.81365 -5.511763,1.80079 -1.47515,1.01757 -3.154878,3.17302 -3.886679,4.98744 -0.618053,1.5324 -0.624297,1.65139 -0.7024,13.38625 l -0.07881,11.8401 H 11.610106 7.521722 Z m 74.877083,0 v -19.44688 h 4.233334 4.233333 v 19.44688 19.44687 h -4.233333 -4.233334 z m 2.189282,-25.55695 c -2.831589,-1.40162 -2.868927,-4.95346 -0.06734,-6.4058 1.3466,-0.69807 3.860509,-0.5184 4.964221,0.35479 1.170295,0.92587 1.789568,2.58723 1.402062,3.7614 -0.794616,2.4077 -3.830794,3.51132 -6.298941,2.28961 z"
         id="path28" />
      <path
         style="fill:#46b9ea;stroke-width:0.264583"
         d="M -39.309528,142.11905 V -0.75595295 h 142.874998 142.875 V 142.11905 v 142.875 h -142.875 -142.874998 z m 118.012826,38.75698 c 1.262888,-0.65307 1.578841,-1.6026 1.578841,-4.74489 0,-1.53519 -0.109141,-2.79126 -0.242536,-2.79126 -0.133392,0 -0.282887,0.12106 -0.332211,0.26903 -0.0523,0.15691 -0.525878,0.0466 -1.136324,-0.26458 -1.243986,-0.63422 -1.710915,-0.65862 -2.921842,-0.15266 -2.786792,1.16439 -2.528993,5.27825 0.388999,6.2075 1.154321,0.36761 1.249526,0.35567 3.017922,-0.37832 0.43739,-0.18154 0.459163,-0.14024 0.190595,0.36159 -0.693941,1.29664 -3.145226,1.72424 -3.997497,0.69731 -0.412197,-0.49666 -0.78794,-0.50048 -0.78794,-0.008 0,1.08869 2.70151,1.60089 4.241993,0.80428 z m -3.468594,-2.7533 c -0.625044,-0.62504 -0.773399,-1.00118 -0.773399,-1.96085 0,-1.00117 0.127709,-1.29492 0.814052,-1.87244 1.069234,-0.8997 2.322533,-0.90577 3.379531,-0.0164 1.444453,1.21543 1.341331,3.25894 -0.210725,4.17576 -1.167789,0.68983 -2.309537,0.57383 -3.209459,-0.3261 z m 112.358806,2.71848 c 1.1542,-0.75626 1.43238,-1.67098 1.43238,-4.71007 0,-1.53519 -0.10914,-2.79126 -0.24254,-2.79126 -0.13339,0 -0.28675,0.13266 -0.3408,0.2948 -0.0628,0.18854 -0.42839,0.0935 -1.01423,-0.2636 -1.10637,-0.67446 -1.85775,-0.70328 -3.09004,-0.11852 -2.66115,1.2628 -2.47549,5.09195 0.29809,6.14758 0.91878,0.34969 1.15239,0.34506 2.23515,-0.0443 0.66503,-0.23914 1.24933,-0.39461 1.29845,-0.34549 0.0491,0.0491 -0.20415,0.43047 -0.56281,0.84744 -0.53732,0.62467 -0.86086,0.75813 -1.83788,0.75813 -0.79935,0 -1.36928,-0.16609 -1.74895,-0.50968 -0.41263,-0.37343 -0.6417,-0.43119 -0.85685,-0.21603 -0.21515,0.21515 -0.0543,0.43955 0.60156,0.83942 1.09068,0.66493 2.90333,0.71776 3.82847,0.11158 z m -2.97108,-2.20744 c -0.87372,-0.35258 -1.41737,-1.33111 -1.41737,-2.55112 0,-2.17794 2.48884,-3.24402 4.20403,-1.80078 2.39695,2.0169 0.14437,5.53472 -2.78666,4.3519 z m -159.142778,0.67668 c 0.403555,-0.20869 0.88847,-0.56587 1.077592,-0.79375 0.291394,-0.35111 0.268269,-0.41304 -0.151564,-0.40591 -0.272478,0.005 -0.726533,0.18323 -1.009007,0.39688 -0.674365,0.51006 -2.10984,0.49678 -2.541648,-0.0235 -0.293119,-0.35319 -0.04855,-0.70707 1.713936,-2.47995 l 2.055844,-2.06797 -0.612738,-0.42918 c -2.188519,-1.5329 -5.259199,0.0688 -5.259199,2.74324 0,2.43065 2.639539,4.13951 4.726784,3.06015 z m -3.758624,-1.91363 c -0.09701,-0.097 -0.176389,-0.68174 -0.176389,-1.29939 0,-0.9292 0.140488,-1.24122 0.814051,-1.80799 0.841918,-0.70843 2.141879,-0.89968 2.890115,-0.4252 0.322617,0.20458 0.07652,0.57511 -1.315273,1.98032 -1.73659,1.75333 -1.898115,1.86666 -2.212504,1.55226 z m 13.786776,1.7629 c 1.038315,-0.63306 1.118085,-0.64243 1.118085,-0.1313 0,0.21828 0.119062,0.39688 0.264583,0.39688 0.160266,0 0.264583,-1.14133 0.264583,-2.8948 0,-1.64447 -0.114278,-2.96544 -0.264583,-3.05833 -0.145521,-0.0899 -0.264583,-0.035 -0.264583,0.12206 0,0.16246 -0.451694,0.0551 -1.047793,-0.24897 -1.243367,-0.63432 -1.834327,-0.66402 -3.055953,-0.15359 -1.804678,0.75404 -2.508194,3.11783 -1.446305,4.85953 0.943832,1.54806 2.906077,2.03886 4.431966,1.10852 z m -3.359531,-0.94857 c -1.755441,-1.4771 -0.617542,-4.60669 1.674964,-4.60669 0.665715,0 1.194027,0.22499 1.800278,0.76668 0.710078,0.63445 0.858057,0.95853 0.858057,1.87916 0,0.92063 -0.147979,1.2447 -0.858057,1.87916 -1.1155,0.99669 -2.353244,1.02579 -3.475242,0.0817 z m 13.93647,0.95246 c 0.867992,-0.52922 1.138957,-1.06833 0.529167,-1.05282 -0.181902,0.005 -0.561846,0.18323 -0.84432,0.39688 -0.282475,0.21365 -0.954749,0.38846 -1.493946,0.38846 -0.790983,0 -1.138973,-0.18066 -1.801514,-0.93525 -0.863367,-0.98332 -0.981593,-1.51874 -0.572783,-2.59399 0.629862,-1.65666 2.424142,-2.24546 4.00214,-1.31331 0.835092,0.4933 1.303412,0.31798 0.793107,-0.2969 -0.589788,-0.71065 -2.091092,-1.04234 -3.205966,-0.70832 -1.480995,0.44372 -2.366823,1.62767 -2.366823,3.16337 0,1.41006 0.462346,2.22541 1.684526,2.97066 1.063548,0.64852 2.192575,0.64205 3.276412,-0.0188 z m 50.507953,-0.18486 c 0.565346,-0.37043 0.622776,-0.36866 0.622776,0.0192 0,0.23502 0.119063,0.42731 0.264583,0.42731 0.161052,0 0.264584,-1.19063 0.264584,-3.04271 0,-1.67349 -0.109141,-3.04271 -0.242536,-3.04271 -0.133392,0 -0.294592,0.14883 -0.358219,0.33073 -0.08582,0.24536 -0.245174,0.21699 -0.617361,-0.10991 -1.338971,-1.17604 -3.885871,-0.71087 -4.86052,0.88774 -1.916917,3.14412 1.810798,6.57192 4.926693,4.53031 z m -3.854839,-0.7676 c -0.701773,-0.5905 -0.814052,-0.86095 -0.814052,-1.96085 0,-1.0999 0.112279,-1.37036 0.814052,-1.96086 1.643904,-1.38325 4.041587,-0.42407 4.387993,1.7554 0.138911,0.874 0.05129,1.09045 -0.776481,1.91823 -1.18037,1.18037 -2.403689,1.2644 -3.611512,0.24808 z m 23.009763,1.01571 c 0.6412,-0.35013 0.8776,-0.38238 0.96954,-0.13229 0.0669,0.1819 0.23072,0.33073 0.36411,0.33073 0.13825,0 0.24254,-2.10464 0.24254,-4.89479 0,-3.08681 -0.0977,-4.8948 -0.26459,-4.8948 -0.15465,0 -0.26458,0.89209 -0.26458,2.1471 v 2.1471 l -0.64283,-0.4212 c -2.45763,-1.6103 -5.6931,0.25452 -5.34798,3.0824 0.30599,2.50717 2.77176,3.82178 4.94379,2.63575 z m -3.47125,-1.10413 c -0.60656,-0.60655 -0.7734,-1.01048 -0.7734,-1.87243 0,-2.94334 4.13022,-3.64356 5.05014,-0.85619 0.37139,1.12532 0.16986,1.91403 -0.71523,2.79912 -1.00794,1.00794 -2.51286,0.97815 -3.56151,-0.0705 z m 25.26426,1.19727 c 0.97666,-0.40807 1.33303,-0.81167 1.07925,-1.22228 -0.10192,-0.16492 -0.42933,-0.0624 -0.84504,0.26459 -0.76496,0.60172 -2.13094,0.70002 -2.81157,0.20233 -0.40684,-0.29749 -0.24918,-0.5343 1.53693,-2.30849 1.09465,-1.08734 1.99027,-2.11523 1.99027,-2.28419 0,-0.38008 -1.59596,-1.16125 -2.37248,-1.16125 -1.31844,0 -2.81206,1.26541 -3.20173,2.71254 -0.23317,0.86593 -0.19109,1.20386 0.26803,2.15227 0.85206,1.76012 2.54766,2.4002 4.35634,1.64448 z m -3.96859,-2.40824 c -0.40673,-1.62052 0.89772,-3.3073 2.55765,-3.3073 0.55365,0 1.08763,0.13106 1.18663,0.29124 0.17133,0.27722 -2.9513,3.67751 -3.37723,3.67751 -0.11057,0 -0.27574,-0.29765 -0.36705,-0.66145 z m 13.99061,2.27748 c 0.81583,-0.41594 0.98199,-0.43459 0.98199,-0.11025 0,0.21472 0.14883,0.34111 0.33073,0.28086 0.22348,-0.074 0.35596,-0.87479 0.40853,-2.46945 0.0882,-2.67336 -0.0846,-3.78184 -0.52132,-3.34513 -0.19952,0.19952 -0.58048,0.12632 -1.30326,-0.25042 -2.16746,-1.12974 -4.76405,0.35747 -4.80021,2.74933 -0.0217,1.43478 0.64365,2.64678 1.75818,3.20277 1.11073,0.55409 1.9765,0.5382 3.14536,-0.0577 z m -3.15423,-0.76201 c -1.57702,-1.27744 -1.49724,-3.40044 0.16469,-4.38216 1.17291,-0.69286 2.30008,-0.56526 3.23112,0.36578 0.72758,0.72758 0.79277,0.92711 0.66713,2.04179 -0.10161,0.90151 -0.32904,1.39866 -0.84149,1.83945 -0.85151,0.73243 -2.40369,0.79755 -3.22145,0.13514 z M 15.459222,174.94259 v -4.4827 l 1.103916,-0.0814 c 0.607152,-0.0448 1.152855,-0.23019 1.212672,-0.41209 0.08222,-0.25003 -0.54761,-0.33073 -2.581171,-0.33073 -2.035046,0 -2.662775,0.0805 -2.578386,0.33073 0.06135,0.1819 0.398693,0.34877 0.749652,0.37081 0.350959,0.022 0.846468,0.0518 1.10113,0.0661 0.42179,0.0238 0.46302,0.42658 0.46302,4.52399 0,2.82222 0.09857,4.49792 0.264584,4.49792 0.165978,0 0.264583,-1.67063 0.264583,-4.48271 z m 36.247917,1.97526 c 0,-2.3427 0.04101,-2.53431 0.624178,-2.91641 0.660308,-0.43266 1.30601,-0.32573 2.087801,0.34571 0.3761,0.32301 0.463021,0.83698 0.463021,2.7379 0,1.96672 0.06742,2.34025 0.422415,2.34025 0.363834,0 0.409699,-0.3518 0.330729,-2.53676 -0.08774,-2.42748 -0.125132,-2.56552 -0.868079,-3.20428 -0.656371,-0.56432 -0.951069,-0.64357 -1.906294,-0.51264 l -1.129898,0.15486 -0.07808,-1.77923 c -0.04294,-0.97859 -0.197143,-1.77924 -0.342664,-1.77924 -0.16409,0 -0.291973,1.83401 -0.336698,4.82864 -0.06241,4.17911 -0.01791,4.82865 0.330729,4.82865 0.332398,0 0.402844,-0.43848 0.402844,-2.50745 z m 8.863541,-0.49116 c 0,-3.88509 -0.506888,-3.84561 -0.604213,0.0471 -0.05877,2.35083 -0.0013,2.97703 0.264584,2.88837 0.248147,-0.0827 0.339629,-0.8734 0.339629,-2.93543 z m 4.894792,0.65836 c 0,-1.89752 0.08759,-2.41715 0.463021,-2.74683 0.823021,-0.7227 1.522055,-0.78113 2.27353,-0.19002 0.667192,0.52481 0.703032,0.67342 0.703032,2.91505 0,1.98668 0.06713,2.36205 0.422416,2.36205 0.363833,0 0.409699,-0.3518 0.330729,-2.53676 -0.08771,-2.42669 -0.125331,-2.56569 -0.867093,-3.20343 -0.661389,-0.56864 -0.933717,-0.64002 -1.852083,-0.48543 -0.592172,0.0997 -1.285036,0.19752 -1.539698,0.21742 -0.411482,0.0322 -0.463021,0.36853 -0.463021,3.02219 0,1.81428 0.103825,2.98601 0.264584,2.98601 0.156445,0 0.264583,-0.95647 0.264583,-2.34025 z m 37.041668,0.1206 c 0,-1.73356 0.10139,-2.33691 0.46302,-2.75513 0.7145,-0.82633 1.47485,-0.93057 2.26339,-0.31029 0.63841,0.50217 0.6989,0.72452 0.76918,2.82755 0.0513,1.53381 0.18477,2.31845 0.40701,2.39207 0.24849,0.0823 0.33073,-0.49315 0.33073,-2.31411 0,-2.34869 -0.025,-2.44859 -0.80652,-3.23017 -0.72913,-0.72913 -0.9132,-0.78895 -1.91823,-0.62339 -0.61144,0.10072 -1.32007,0.18256 -1.57473,0.18186 -0.41406,-0.001 -0.46302,0.31874 -0.46302,3.02499 0,1.84112 0.10362,3.02627 0.26459,3.02627 0.15536,0 0.26458,-0.91627 0.26458,-2.21965 z m 26.45833,-2.69719 c 0,-3.81573 -0.0741,-4.89222 -0.33073,-4.80689 -0.24177,0.0804 -0.35107,1.24278 -0.40636,4.32153 -0.0773,4.3042 0.0198,5.4022 0.47755,5.4022 0.16036,0 0.25954,-1.879 0.25954,-4.91684 z m 25.13542,2.89756 c 0,-1.97779 0.0197,-2.03785 0.95788,-2.92268 1.07845,-1.01711 0.98632,-1.49014 -0.16188,-0.83116 -0.65734,0.37726 -0.77712,0.38312 -0.90709,0.0444 -0.0824,-0.21464 -0.26966,-0.31614 -0.41621,-0.22557 -0.29362,0.18147 -0.37639,5.49156 -0.0901,5.77789 0.46585,0.46585 0.61736,0.0136 0.61736,-1.84289 z m 6.08542,-0.20037 c 0,-1.73356 0.10139,-2.33691 0.46302,-2.75513 0.7176,-0.82992 1.4748,-0.9306 2.27353,-0.30232 0.64699,0.50892 0.70303,0.70792 0.70303,2.49654 0,2.05167 0.15283,2.78056 0.58301,2.78056 0.16087,0 0.22647,-0.97808 0.17013,-2.53676 -0.0875,-2.42234 -0.12641,-2.56662 -0.86165,-3.19875 -0.64343,-0.5532 -0.94781,-0.63646 -1.85209,-0.50662 -0.59516,0.0855 -1.29047,0.16307 -1.54513,0.17248 -0.41299,0.0153 -0.46302,0.34414 -0.46302,3.04338 0,1.84112 0.10361,3.02627 0.26458,3.02627 0.15537,0 0.26459,-0.91627 0.26459,-2.21965 z m 9.20593,-0.31525 c 0.0839,-2.54438 -0.0746,-3.66551 -0.48244,-3.41343 -0.40639,0.25116 -0.33395,6.01797 0.0739,5.88288 0.22349,-0.074 0.35596,-0.87479 0.40854,-2.46945 z m 4.81698,0.31525 c 0,-1.73356 0.1014,-2.33691 0.46302,-2.75513 0.71761,-0.82992 1.4748,-0.9306 2.27353,-0.30232 0.66719,0.52481 0.70304,0.67342 0.70304,2.91505 0,1.98668 0.0671,2.36205 0.42241,2.36205 0.36383,0 0.4097,-0.3518 0.33073,-2.53676 -0.0877,-2.42669 -0.12533,-2.56569 -0.86709,-3.20343 -0.66,-0.56744 -0.93566,-0.64011 -1.85209,-0.48823 -0.59217,0.0981 -1.28503,0.17786 -1.53969,0.17716 -0.41406,-0.001 -0.46302,0.31874 -0.46302,3.02499 0,1.84112 0.10361,3.02627 0.26458,3.02627 0.15536,0 0.26458,-0.91627 0.26458,-2.21965 z M 60.702972,171.86906 c 0,-0.2097 -0.238125,-0.38126 -0.529167,-0.38126 -0.577514,0 -0.732194,0.67682 -0.198437,0.86829 0.447606,0.16056 0.727604,-0.0269 0.727604,-0.48703 z m 108.654898,0.26241 c 0.23499,-0.61238 -0.28501,-1.01732 -0.68597,-0.53419 -0.33897,0.40843 -0.18542,0.94885 0.26957,0.94885 0.1415,0 0.32888,-0.1866 0.4164,-0.41466 z m -47.8091,-15.59185 c 2.65264,-0.97802 5.03545,-2.49211 5.03545,-3.19963 0,-0.22476 -2.68901,-3.93429 -3.30374,-4.55757 -0.0453,-0.0459 -0.72349,0.27834 -1.50711,0.72058 -2.53227,1.42913 -6.95616,1.57482 -9.43407,0.31069 -1.63028,-0.83171 -3.11282,-2.64815 -3.45194,-4.22938 -0.31079,-1.44915 -0.43046,-19.73723 -0.13421,-20.50925 0.14025,-0.36547 0.96182,-0.41851 6.4823,-0.41851 h 6.32169 v -3.43959 -3.43958 h -6.48229 -6.48229 v -5.42396 -5.42396 h -4.10105 -4.10104 v 19.65587 c 0,21.69247 -0.0193,21.41188 1.66485,24.22982 1.13422,1.89781 3.34563,3.83973 5.62878,4.94285 2.91525,1.40852 4.50183,1.70953 8.44908,1.603 2.95683,-0.0798 3.71692,-0.19508 5.41559,-0.82138 z m 30.96462,0.003 c 2.15457,-0.78749 4.84895,-2.46098 4.97097,-3.08749 0.0419,-0.21513 -0.66148,-1.33577 -1.56306,-2.49032 -0.90157,-1.15453 -1.66121,-2.12998 -1.68808,-2.16766 -0.0269,-0.0377 -0.75309,0.2947 -1.61383,0.73861 -4.89819,2.5262 -11.25249,0.83065 -12.64949,-3.37532 -0.36898,-1.11088 -0.41806,-2.66331 -0.35818,-11.32957 l 0.0694,-10.0423 6.41614,-0.0708 6.41615,-0.0709 v -3.43488 -3.43488 h -6.48229 -6.48229 v -5.42396 -5.42396 h -4.10105 -4.10104 v 19.65587 c 0,21.69288 -0.0191,21.41483 1.66485,24.22711 1.16428,1.94439 3.30096,3.82999 5.58468,4.92841 2.96802,1.42756 4.53728,1.72692 8.49318,1.62015 2.94701,-0.0795 3.72376,-0.19669 5.42396,-0.81811 z m 30.83451,0.51676 c 2.36021,-0.60652 5.08376,-1.98811 6.90017,-3.50028 l 1.61906,-1.34788 0.16458,1.36992 c 0.0905,0.75346 0.16561,1.75688 0.16688,2.22982 l 0.002,0.8599 h 3.83646 3.83646 v -19.44687 -19.44688 h -4.22314 -4.22314 l -0.0763,11.98672 -0.0763,11.98672 -0.97949,1.98124 c -1.19247,2.41209 -2.74145,3.9324 -5.17066,5.07498 -1.58906,0.74741 -2.05153,0.84134 -4.1686,0.84666 -1.88754,0.005 -2.73098,-0.12671 -4.06805,-0.634 -2.28829,-0.86817 -4.50055,-2.92947 -5.65071,-5.2651 l -0.86458,-1.75572 -0.0738,-12.11075 -0.0738,-12.11075 h -4.22564 -4.22564 l 0.002,11.31094 c 0.001,6.42689 0.11922,12.05354 0.27346,13.03073 0.50389,3.19226 1.33689,5.33734 3.11495,8.02141 2.1766,3.28568 5.67419,5.75393 9.61697,6.78671 2.42201,0.63442 6.37553,0.69556 8.56672,0.13248 z M 15.777293,144.83103 c 0.0781,-11.73486 0.08435,-11.85385 0.7024,-13.38625 0.342977,-0.85037 1.122445,-2.15809 1.732151,-2.90603 5.064942,-6.2133 14.273255,-4.63788 17.392285,2.97558 0.593553,1.44885 0.606713,1.69909 0.700296,13.3167 l 0.09538,11.8401 h 4.08179 4.081794 v -11.32149 c 0,-12.30185 0.08711,-13.21083 1.482227,-15.46746 0.987076,-1.5966 2.705555,-3.32518 3.941731,-3.9649 5.309955,-2.7479 11.398054,-0.6721 13.973395,4.76435 l 0.843272,1.78013 0.132291,12.03854 0.132292,12.03854 h 4.101042 4.101041 v -12.43542 c 0,-12.02459 -0.0195,-12.50849 -0.589925,-14.6473 -1.622306,-6.08272 -5.660499,-10.32518 -11.273642,-11.84392 -0.751081,-0.20321 -2.440191,-0.44398 -3.753578,-0.53503 -5.876808,-0.4074 -11.272821,2.00484 -14.862587,6.6442 l -0.811829,1.0492 -0.552525,-0.90855 c -0.870143,-1.43084 -3.175597,-3.64223 -4.870624,-4.6719 -5.749552,-3.49267 -13.971614,-2.68116 -19.387831,1.91356 -0.93114,0.78991 -1.7561,1.4362 -1.833242,1.4362 -0.07714,0 -0.141883,-0.80367 -0.14387,-1.78594 -0.0064,-3.16572 0.247542,-2.97656 -3.995997,-2.97656 H 7.521722 v 19.44688 19.44687 h 4.088384 4.088381 z m 75.088179,-7.60677 v -19.44688 h -4.233333 -4.233334 v 19.44688 19.44687 h 4.233334 4.233333 z m -2.619169,-25.30371 c 1.200809,-0.40133 2.275486,-1.43618 2.640725,-2.54285 0.387506,-1.17417 -0.231767,-2.83553 -1.402062,-3.7614 -1.103712,-0.87319 -3.617621,-1.05286 -4.964221,-0.35479 -2.801585,1.45234 -2.764247,5.00418 0.06734,6.4058 1.255813,0.62161 2.332895,0.69618 3.658216,0.25324 z"
         id="path26" />
    </g>
  </g>
</svg>
